<svg xmlns="http://www.w3.org/2000/svg" height="800" width="1200" viewBox="-18.03345 -32.526 156.2899 195.156"><defs><linearGradient gradientUnits="userSpaceOnUse" gradientTransform="scale(1.21254 .82472)" id="a" y2="104.22" x2="90.936" y1="130.763" x1="26.279"><stop offset="0%" stop-color="#FCEE39"/><stop offset="100%" stop-color="#F37B3D"/></linearGradient><linearGradient gradientUnits="userSpaceOnUse" gradientTransform="scale(1.03762 .96374)" id="b" y2="67.462" x2="115.592" y1="11.385" x1="46.629"><stop offset="0%" stop-color="#EF5A6B"/><stop offset="57%" stop-color="#F26F4E"/><stop offset="100%" stop-color="#F37B3D"/></linearGradient><linearGradient gradientUnits="userSpaceOnUse" gradientTransform="scale(1.2 .83333)" id="c" y2="50.566" x2="8.801" y1="65.892" x1="44.141"><stop offset="0%" stop-color="#7C59A4"/><stop offset="38.52%" stop-color="#AF4C92"/><stop offset="76.54%" stop-color="#DC4183"/><stop offset="95.7%" stop-color="#ED3D7D"/></linearGradient><linearGradient gradientUnits="userSpaceOnUse" gradientTransform="scale(1.08271 .9236)" id="d" y2="37.042" x2="9.969" y1="10.1" x1="48.209"><stop offset="0%" stop-color="#EF5A6B"/><stop offset="36.4%" stop-color="#EE4E72"/><stop offset="100%" stop-color="#ED3D7D"/></linearGradient></defs><g fill="none"><path fill="url(#a)" d="M118.623 71.8c.9-.8 1.4-1.9 1.5-3.2.1-2.6-1.8-4.7-4.4-4.9-1.2-.1-2.4.4-3.3 1.1l-83.8 45.9c-1.9.8-3.6 2.2-4.7 4.1-2.9 4.8-1.3 11 3.6 13.9 3.4 2 7.5 1.8 10.7-.2.2-.2.5-.3.7-.5l78-54.8c.4-.3 1.5-1.1 1.7-1.4z"/><path fill="url(#b)" d="M118.823 65.1l-63.8-62.6c-1.4-1.5-3.4-2.5-5.7-2.5-4.3 0-7.7 3.5-7.7 7.7 0 2.1.8 3.9 2.1 5.3.4.4.8.7 1.2 1l67.4 57.7c.8.7 1.8 1.2 3 1.3 2.6.1 4.7-1.8 4.9-4.4 0-1.3-.5-2.6-1.4-3.5z"/><path fill="url(#c)" d="M57.123 59.5c-.1 0-39.4-31-40.2-31.5l-1.8-.9c-5.8-2.2-12.2.8-14.4 6.6-1.9 5.1.2 10.7 4.6 13.4.7.4 1.3.7 2 .9.4.2 45.4 18.8 45.4 18.8 1.8.8 3.9.3 5.1-1.2 1.5-1.9 1.2-4.6-.7-6.1z"/><path fill="url(#d)" d="M49.323 0c-1.7 0-3.3.6-4.6 1.5l-39.8 26.8c-.1.1-.2.1-.2.2h-.1c-1.7 1.2-3.1 3-3.9 5.1-2.2 5.8.8 12.3 6.6 14.4 3.6 1.4 7.5.7 10.4-1.4.7-.5 1.3-1 1.8-1.6l34.6-31.2c1.8-1.4 3-3.6 3-6.1 0-4.2-3.5-7.7-7.8-7.7z"/><path d="M34.623 37.4h51v51h-51z" fill="#000"/><path d="M39.023 78.8h19.1V82h-19.1zm-.2-28l1.5-1.4c.4.5.8.8 1.3.8.6 0 .9-.4.9-1.2v-5.3h2.3V49c0 1-.3 1.8-.8 2.3-.5.5-1.3.8-2.3.8-1.5.1-2.3-.5-2.9-1.3zm6.5-7h6.7v1.9h-4.4V47h4v1.8h-4v1.3h4.5v2h-6.7zm9.7 2h-2.5v-2h7.3v2h-2.5v6.3h-2.3zm-16 8.2h4.3c1 0 1.8.3 2.3.7.3.3.5.8.5 1.4 0 1-.5 1.5-1.3 1.9 1 .3 1.6.9 1.6 2 0 1.4-1.2 2.3-3.1 2.3h-4.3zm4.8 2.6c0-.5-.4-.7-1-.7h-1.5v1.5h1.4c.7-.1 1.1-.3 1.1-.8zm-.8 2.4h-1.8v1.5h1.8c.7 0 1.1-.3 1.1-.8s-.4-.7-1.1-.7zm3.8-5h3.9c1.3 0 2.1.3 2.7.9.5.5.7 1.1.7 1.9 0 1.3-.7 2.1-1.7 2.6l2 2.9h-2.6l-1.7-2.5h-1v2.5h-2.3zm3.8 4c.8 0 1.2-.4 1.2-1 0-.7-.5-1-1.2-1h-1.5v2z" fill="#FFF"/><path fill="#FFF" d="M56.823 54h2.2l3.5 8.4h-2.5l-.6-1.5h-3.2l-.6 1.5h-2.4zm2 5l-.9-2.3-.9 2.3zm4-5h2.3v8.3h-2.3zm2.9 0h2.1l3.4 4.4V54h2.3v8.3h-2l-3.5-4.5v4.6h-2.3zm8 7.1l1.3-1.5c.8.7 1.7 1 2.7 1 .6 0 1-.2 1-.6 0-.4-.3-.5-1.4-.8-1.8-.4-3.1-.9-3.1-2.6 0-1.5 1.2-2.7 3.2-2.7 1.4 0 2.5.4 3.4 1.1l-1.2 1.6c-.8-.5-1.6-.8-2.3-.8-.6 0-.8.2-.8.5 0 .4.3.5 1.4.8 1.9.4 3.1 1 3.1 2.6 0 1.7-1.3 2.7-3.4 2.7-1.5.1-2.9-.4-3.9-1.3z"/></g></svg>